<svg width="171" height="76" viewBox="0 0 171 76" fill="none" xmlns="http://www.w3.org/2000/svg">
<path d="M35.0994 52.819C35.0994 51.8294 35.3022 50.8852 35.7078 49.9863C36.1134 49.0792 36.6969 48.2793 37.4584 47.5866C38.2199 46.8939 39.151 46.3414 40.2519 45.929C41.3611 45.5167 42.6192 45.3106 44.0263 45.3106C45.4252 45.3106 46.6833 45.5208 47.8007 45.9414C48.9264 46.3537 49.8783 46.9227 50.6564 47.6484C51.4427 48.3741 52.0428 49.2277 52.4566 50.209C52.8788 51.1903 53.0898 52.2418 53.0898 53.3633C53.0898 53.5035 53.0857 53.6561 53.0774 53.821C53.0774 53.9777 53.0692 54.1219 53.0526 54.2539H39.1966C39.3539 54.691 39.6063 55.0909 39.954 55.4538C40.3099 55.8166 40.7527 56.13 41.2824 56.3939C41.8122 56.6577 42.4247 56.864 43.12 57.0123C43.8153 57.1526 44.585 57.2227 45.4293 57.2227C46.2736 57.2227 47.1137 57.136 47.9497 56.9629C48.7857 56.7814 49.5845 56.5547 50.346 56.2826L51.5875 59.0781C51.1074 59.3008 50.6191 59.4987 50.1225 59.6719C49.6341 59.8368 49.1209 59.977 48.5829 60.0924C48.0532 60.1997 47.4944 60.2821 46.9068 60.3398C46.3274 60.3976 45.7149 60.4265 45.0692 60.4265C43.4221 60.4265 41.9778 60.2285 40.7361 59.8327C39.4946 59.4369 38.4558 58.8967 37.6198 58.2123C36.7838 57.5278 36.1547 56.7237 35.7326 55.8001C35.3105 54.8765 35.0994 53.8828 35.0994 52.819ZM49.1913 51.3965C49.0589 50.9924 48.852 50.6172 48.5705 50.2708C48.2974 49.9162 47.9539 49.6111 47.54 49.3555C47.1261 49.0916 46.6461 48.8854 46.0997 48.737C45.5535 48.5886 44.9534 48.5143 44.2995 48.5143C43.6042 48.5143 42.971 48.5927 42.3999 48.7494C41.8288 48.9061 41.328 49.1163 40.8975 49.3802C40.4672 49.6441 40.1071 49.9492 39.8174 50.2956C39.536 50.6419 39.329 51.0089 39.1966 51.3965H49.1913ZM60.8497 52.8685L54.7908 45.5579H59.484L63.1591 50.011L66.648 45.5579H71.2294L65.5305 52.8561L71.5892 60.1667H66.896L63.1094 55.6022L59.5957 60.1667H55.0143L60.8497 52.8685ZM76.1459 48.3164H72.6076V45.5703H76.1459V41.0306H79.8208V45.5703H83.3596V48.3164H79.8208V60.1667H76.1459V48.3164Z" fill="#1C4C8E"/>
<path d="M102.629 52.8685C102.629 51.8212 102.84 50.8398 103.262 49.9245C103.692 49.0091 104.301 48.2092 105.087 47.5248C105.881 46.8403 106.837 46.3001 107.955 45.9043C109.081 45.5085 110.343 45.3106 111.742 45.3106C113.141 45.3106 114.399 45.5085 115.517 45.9043C116.642 46.3001 117.598 46.8403 118.384 47.5248C119.179 48.2092 119.788 49.0091 120.21 49.9245C120.64 50.8398 120.855 51.8212 120.855 52.8685C120.855 53.9158 120.64 54.8971 120.21 55.8125C119.788 56.7279 119.179 57.5278 118.384 58.2123C117.598 58.8967 116.642 59.4369 115.517 59.8327C114.399 60.2285 113.141 60.4265 111.742 60.4265C110.343 60.4265 109.081 60.2285 107.955 59.8327C106.837 59.4369 105.881 58.8967 105.087 58.2123C104.301 57.5278 103.692 56.7279 103.262 55.8125C102.84 54.8971 102.629 53.9158 102.629 52.8685ZM106.49 52.8685C106.49 53.454 106.606 54.0106 106.837 54.5384C107.078 55.0579 107.421 55.5198 107.869 55.9238C108.324 56.3197 108.874 56.6372 109.519 56.8763C110.174 57.1072 110.914 57.2227 111.742 57.2227C112.569 57.2227 113.306 57.1072 113.952 56.8763C114.606 56.6372 115.156 56.3197 115.603 55.9238C116.059 55.5198 116.402 55.0579 116.634 54.5384C116.874 54.0106 116.994 53.454 116.994 52.8685C116.994 52.283 116.874 51.7264 116.634 51.1985C116.402 50.6708 116.059 50.209 115.603 49.8131C115.156 49.409 114.606 49.0916 113.952 48.8606C113.306 48.6215 112.569 48.5019 111.742 48.5019C110.914 48.5019 110.174 48.6215 109.519 48.8606C108.874 49.0916 108.324 49.409 107.869 49.8131C107.421 50.209 107.078 50.6708 106.837 51.1985C106.606 51.7264 106.49 52.283 106.49 52.8685ZM123.686 52.8685C123.686 51.8212 123.897 50.8398 124.319 49.9245C124.749 49.0091 125.358 48.2092 126.145 47.5248C126.939 46.8403 127.895 46.3001 129.012 45.9043C130.138 45.5085 131.4 45.3106 132.799 45.3106C134.198 45.3106 135.456 45.5085 136.574 45.9043C137.699 46.3001 138.655 46.8403 139.441 47.5248C140.236 48.2092 140.844 49.0091 141.267 49.9245C141.697 50.8398 141.912 51.8212 141.912 52.8685C141.912 53.9158 141.697 54.8971 141.267 55.8125C140.844 56.7279 140.236 57.5278 139.441 58.2123C138.655 58.8967 137.699 59.4369 136.574 59.8327C135.456 60.2285 134.198 60.4265 132.799 60.4265C131.4 60.4265 130.138 60.2285 129.012 59.8327C127.895 59.4369 126.939 58.8967 126.145 58.2123C125.358 57.5278 124.749 56.7279 124.319 55.8125C123.897 54.8971 123.686 53.9158 123.686 52.8685ZM127.548 52.8685C127.548 53.454 127.663 54.0106 127.895 54.5384C128.135 55.0579 128.478 55.5198 128.925 55.9238C129.381 56.3197 129.931 56.6372 130.577 56.8763C131.231 57.1072 131.971 57.2227 132.799 57.2227C133.627 57.2227 134.363 57.1072 135.009 56.8763C135.663 56.6372 136.213 56.3197 136.66 55.9238C137.116 55.5198 137.459 55.0579 137.691 54.5384C137.931 54.0106 138.051 53.454 138.051 52.8685C138.051 52.283 137.931 51.7264 137.691 51.1985C137.459 50.6708 137.116 50.209 136.66 49.8131C136.213 49.409 135.663 49.0916 135.009 48.8606C134.363 48.6215 133.627 48.5019 132.799 48.5019C131.971 48.5019 131.231 48.6215 130.577 48.8606C129.931 49.0916 129.381 49.409 128.925 49.8131C128.478 50.209 128.135 50.6708 127.895 51.1985C127.663 51.7264 127.548 52.283 127.548 52.8685ZM145.724 39.6452H149.399V60.1667H145.724V39.6452ZM154.7 55.6888C155.694 56.2826 156.787 56.7196 157.979 57C159.17 57.2804 160.391 57.4206 161.641 57.4206C162.485 57.4206 163.189 57.3628 163.752 57.2474C164.314 57.1319 164.766 56.9835 165.105 56.8021C165.444 56.6206 165.684 56.4145 165.825 56.1836C165.966 55.9527 166.036 55.7177 166.036 55.4785C166.036 55.1322 165.883 54.8353 165.577 54.5879C165.279 54.3405 164.782 54.2168 164.087 54.2168C163.764 54.2168 163.416 54.2374 163.044 54.2786C162.671 54.3199 162.278 54.3652 161.865 54.4147C161.459 54.456 161.032 54.4972 160.586 54.5384C160.147 54.5796 159.7 54.6002 159.245 54.6002C158.251 54.6002 157.403 54.4931 156.7 54.2786C156.004 54.0642 155.437 53.7715 154.998 53.4004C154.56 53.0293 154.241 52.5922 154.042 52.0892C153.844 51.5779 153.744 51.0295 153.744 50.444C153.744 49.7018 153.918 49.0173 154.266 48.3906C154.614 47.7639 155.11 47.2237 155.756 46.7702C156.401 46.3084 157.18 45.9497 158.09 45.694C159.009 45.4384 160.031 45.3106 161.157 45.3106C161.744 45.3106 162.357 45.3477 162.994 45.4219C163.64 45.4878 164.273 45.5785 164.894 45.694C165.515 45.8094 166.111 45.9455 166.682 46.1022C167.253 46.2506 167.758 46.4114 168.197 46.5846L167.042 49.4297C166.106 49.0833 165.171 48.8112 164.236 48.6133C163.309 48.4071 162.353 48.304 161.368 48.304C160.681 48.304 160.097 48.3577 159.617 48.4648C159.146 48.5638 158.76 48.6998 158.462 48.8731C158.165 49.038 157.946 49.2318 157.804 49.4544C157.672 49.6688 157.606 49.8956 157.606 50.1348C157.606 50.3079 157.639 50.4646 157.705 50.6048C157.78 50.745 157.895 50.8687 158.053 50.9759C158.218 51.0748 158.429 51.1532 158.686 51.2109C158.951 51.2604 159.273 51.2852 159.654 51.2852C160.002 51.2852 160.371 51.2645 160.76 51.2233C161.149 51.1821 161.554 51.1408 161.976 51.0996C162.398 51.0501 162.833 51.0048 163.28 50.9636C163.735 50.9223 164.199 50.9017 164.67 50.9017C165.548 50.9017 166.314 51.0048 166.967 51.2109C167.63 51.4171 168.176 51.7057 168.606 52.0768C169.036 52.4479 169.359 52.885 169.575 53.388C169.79 53.891 169.898 54.4394 169.898 55.0332C169.898 55.8001 169.72 56.5135 169.364 57.1731C169.008 57.8329 168.478 58.4061 167.775 58.8926C167.071 59.3709 166.194 59.7461 165.142 60.0182C164.1 60.2904 162.891 60.4265 161.517 60.4265C160.673 60.4265 159.857 60.3728 159.071 60.2656C158.284 60.1667 157.535 60.0306 156.824 59.8574C156.112 59.676 155.442 59.4657 154.812 59.2265C154.192 58.9874 153.625 58.7318 153.111 58.4596L154.7 55.6888Z" fill="#FF0042"/>
<path d="M88.7083 22.0182H71.5149V13.7651H115.347V22.0182H98.154V60.1667H88.7083V22.0182Z" fill="#FF0042"/>
<path d="M20.6897 22.0182H3.49628V13.7651H47.3289V22.0182H30.1355V60.1667H20.6897V22.0182Z" fill="#1C4C8E"/>
</svg>
